<svg width="289" height="148" viewBox="0 0 289 148" fill="none" xmlns="http://www.w3.org/2000/svg">
<path d="M74.7073 147.945C115.546 147.945 148.652 114.838 148.652 74C148.652 33.1615 115.546 0.0554199 74.7073 0.0554199C33.8688 0.0554199 0.762695 33.1615 0.762695 74C0.762695 114.838 33.8688 147.945 74.7073 147.945Z" fill="url(#paint0_linear)"/>
<path d="M49.2106 91.4358C49.238 91.4632 49.2928 91.5042 49.3064 91.4905C49.3886 91.4495 49.3338 91.3947 49.2927 91.3537C48.061 89.6293 46.8977 87.8638 45.8166 86.0436C40.917 77.6952 37.5092 68.731 34.9637 59.4109C34.4026 57.3718 33.9236 55.3189 33.4856 53.266C33.4309 53.266 33.4172 53.2523 33.4035 53.266C33.3624 53.2934 33.3214 53.3344 33.294 53.3618C30.9948 56.7011 29.6673 60.3826 29.5988 64.461C29.5304 68.3478 30.5432 71.9882 32.3223 75.4234C34.8405 80.3092 38.4673 84.237 42.833 87.5216C44.8449 89.0271 46.9525 90.3683 49.2106 91.4358ZM112.822 25.4016C112.644 25.3469 112.521 25.2922 112.384 25.2511C108.99 24.2247 105.542 23.4172 102.024 22.9382C97.0974 22.2676 92.1705 22.2402 87.2709 23.1982C80.387 24.5394 74.4199 27.6187 69.452 32.573C65.6199 36.3914 62.787 40.8803 60.693 45.8483C57.6548 53.0333 56.3273 60.5742 56.0672 68.3204C55.903 73.0283 56.163 77.7226 56.8063 82.3894C56.9705 83.5527 57.1484 84.716 57.3263 85.893C57.5179 85.8383 57.5042 85.7151 57.5453 85.633C58.4623 83.5391 59.4476 81.4725 60.5151 79.447C64.7304 71.4955 69.9173 64.201 75.7885 57.3991C85.2317 46.4505 96.0025 36.9799 107.868 28.7273C109.483 27.6051 111.125 26.5376 112.822 25.4016ZM85.5191 62.1207C84.5201 64.2968 83.5073 66.4318 82.3988 68.5257C77.8277 77.1751 72.1207 85.0308 65.6336 92.3117C55.6977 103.452 44.4617 113.087 32.0075 121.326C31.378 121.736 30.7484 122.147 30.0505 122.598C30.42 122.708 30.7074 122.804 30.9948 122.886C38.1662 125.007 45.4333 126.116 52.9195 125.212C57.9011 124.624 62.5954 123.118 66.9064 120.532C73.4072 116.631 78.0056 111.034 81.2492 104.273C84.9717 96.5269 86.5319 88.2744 86.8467 79.7344C86.9972 75.5602 86.8056 71.3997 86.3266 67.2529C86.1213 65.5422 85.8887 63.8315 85.5191 62.1207ZM52.1394 87.1658C51.7562 83.977 51.4414 80.8293 51.2635 77.6678C50.9624 72.2346 51.0993 66.815 51.5646 61.4091C52.0299 55.9621 52.81 50.5699 53.8912 45.2187C55.1092 39.1422 56.6557 33.1478 58.6128 27.2629C58.9686 26.1954 59.3381 25.1279 59.7077 24.0604C59.6392 24.0467 59.5982 24.0194 59.5708 24.0331C55.2187 25.3332 51.1951 27.2766 47.7599 30.2875C42.1214 35.2281 39.48 41.6057 38.8915 48.955C38.4946 53.8955 39.1379 58.754 40.397 63.5304C42.4909 71.4545 46.1176 78.6532 50.8119 85.3456C51.2635 85.9478 51.7015 86.5636 52.1394 87.1658ZM83.1925 123.994C83.3157 123.981 83.3568 123.981 83.4115 123.967C84.3011 123.666 85.2181 123.379 86.0939 123.05C90.7061 121.285 94.7571 118.698 97.9459 114.866C101.723 110.322 103.53 104.998 104.009 99.182C104.419 94.0772 103.762 89.0818 102.421 84.1549C100.149 75.7655 96.1804 68.1972 91.0482 61.2175C90.9524 61.0943 90.8977 60.9027 90.6787 60.8616C90.6787 60.9574 90.6787 61.0396 90.6924 61.1217C92.0062 69.5658 92.061 78.0374 91.3493 86.5226C90.884 92.0106 90.0902 97.4712 89.009 102.863C87.8868 108.434 86.4908 113.935 84.7664 119.341C84.26 120.888 83.7263 122.407 83.1925 123.994ZM109.456 94.7478C109.51 94.7204 109.551 94.7067 109.565 94.6793C111.905 91.2989 113.247 87.5764 113.301 83.4433C113.356 78.3932 111.673 73.8906 108.922 69.7437C105.076 63.9546 99.8893 59.6983 93.7306 56.5506C93.6759 56.5232 93.6212 56.4685 93.5801 56.5369C101.655 68.1151 106.322 81.103 109.456 94.7478Z" fill="white"/>
<path d="M130.504 97.366C128.552 97.366 126.966 96.756 125.746 95.536C124.567 94.316 123.977 92.486 123.977 90.046C123.977 89.0293 124.14 87.7077 124.465 86.081L128.125 68.94H126.112L126.6 66.5H128.613L130.443 58.082L139.471 56.862L137.397 66.5H141.057L140.569 68.94H136.909L133.005 87.24C132.842 87.85 132.761 88.5007 132.761 89.192C132.761 90.0053 132.944 90.595 133.31 90.961C133.717 91.2863 134.367 91.449 135.262 91.449C136.441 91.449 137.539 90.961 138.556 89.985C139.573 88.9683 140.305 87.667 140.752 86.081H143.314C141.809 90.473 139.878 93.462 137.519 95.048C135.16 96.5933 132.822 97.366 130.504 97.366ZM148.048 97.366C145.73 97.366 143.798 96.573 142.253 94.987C140.707 93.401 139.935 90.9203 139.935 87.545C139.935 84.5357 140.524 81.384 141.704 78.09C142.924 74.7553 144.713 71.9493 147.072 69.672C149.471 67.354 152.318 66.195 155.612 66.195C157.279 66.195 158.519 66.4797 159.333 67.049C160.146 67.6183 160.553 68.3707 160.553 69.306V69.733L161.224 66.5H170.008L165.616 87.24C165.453 87.85 165.372 88.5007 165.372 89.192C165.372 90.9407 166.205 91.815 167.873 91.815C169.011 91.815 169.987 91.2863 170.801 90.229C171.655 89.1717 172.326 87.789 172.814 86.081H175.376C173.871 90.473 172 93.462 169.764 95.048C167.568 96.5933 165.351 97.366 163.115 97.366C161.407 97.366 160.024 96.8983 158.967 95.963C157.95 94.987 157.34 93.584 157.137 91.754C155.957 93.4213 154.636 94.7837 153.172 95.841C151.748 96.8577 150.04 97.366 148.048 97.366ZM152.013 91.449C153.029 91.449 154.026 90.9813 155.002 90.046C156.018 89.07 156.71 87.7483 157.076 86.081L160.004 72.295C160.004 71.7663 159.8 71.258 159.394 70.77C158.987 70.2413 158.357 69.977 157.503 69.977C155.876 69.977 154.412 70.9327 153.111 72.844C151.809 74.7147 150.793 76.992 150.061 79.676C149.329 82.3193 148.963 84.6577 148.963 86.691C148.963 88.7243 149.247 90.0257 149.817 90.595C150.427 91.1643 151.159 91.449 152.013 91.449ZM176.984 66.5H185.768L184.975 70.282C186.358 69.062 187.598 68.1267 188.696 67.476C189.835 66.8253 191.055 66.5 192.356 66.5C193.657 66.5 194.674 66.9473 195.406 67.842C196.179 68.7367 196.565 69.8143 196.565 71.075C196.565 72.2543 196.179 73.2913 195.406 74.186C194.633 75.0807 193.556 75.528 192.173 75.528C191.278 75.528 190.668 75.3247 190.343 74.918C190.058 74.4707 189.835 73.8403 189.672 73.027C189.55 72.4983 189.428 72.112 189.306 71.868C189.184 71.624 188.96 71.502 188.635 71.502C187.781 71.502 187.049 71.685 186.439 72.051C185.87 72.3763 185.117 72.966 184.182 73.82L179.302 97H170.518L176.984 66.5ZM201.81 97.366C199.858 97.366 198.272 96.756 197.052 95.536C195.872 94.316 195.283 92.486 195.283 90.046C195.283 89.0293 195.445 87.7077 195.771 86.081L202.298 55.52L211.326 54.3L204.311 87.24C204.148 87.85 204.067 88.5007 204.067 89.192C204.067 90.0053 204.25 90.595 204.616 90.961C205.022 91.2863 205.673 91.449 206.568 91.449C207.747 91.449 208.845 90.961 209.862 89.985C210.878 88.9683 211.61 87.667 212.058 86.081H214.62C213.115 90.473 211.183 93.462 208.825 95.048C206.466 96.5933 204.128 97.366 201.81 97.366ZM222.22 63.206C220.878 63.206 219.74 62.7383 218.804 61.803C217.869 60.8677 217.401 59.729 217.401 58.387C217.401 57.045 217.869 55.9063 218.804 54.971C219.74 53.995 220.878 53.507 222.22 53.507C223.562 53.507 224.701 53.995 225.636 54.971C226.612 55.9063 227.1 57.045 227.1 58.387C227.1 59.729 226.612 60.8677 225.636 61.803C224.701 62.7383 223.562 63.206 222.22 63.206ZM218.072 97.366C216.12 97.366 214.534 96.756 213.314 95.536C212.135 94.316 211.545 92.486 211.545 90.046C211.545 89.0293 211.708 87.7077 212.033 86.081L216.181 66.5H224.965L220.573 87.24C220.411 87.85 220.329 88.5007 220.329 89.192C220.329 90.0053 220.512 90.595 220.878 90.961C221.285 91.2863 221.936 91.449 222.83 91.449C224.01 91.449 225.108 90.961 226.124 89.985C227.141 88.9683 227.873 87.667 228.32 86.081H230.882C229.378 90.473 227.446 93.462 225.087 95.048C222.729 96.5933 220.39 97.366 218.072 97.366ZM250.317 97.366C247.836 97.366 246.006 96.7153 244.827 95.414C243.688 94.072 243.119 92.425 243.119 90.473C243.119 89.619 243.221 88.6633 243.424 87.606C243.627 86.508 243.831 85.4507 244.034 84.434C244.278 83.4173 244.441 82.7667 244.522 82.482C244.847 81.0587 245.152 79.6557 245.437 78.273C245.722 76.8903 245.864 75.772 245.864 74.918C245.864 72.844 245.132 71.807 243.668 71.807C242.611 71.807 241.675 72.3357 240.862 73.393C240.049 74.4097 239.398 75.7517 238.91 77.419L234.762 97H225.978L232.444 66.5H241.228L240.557 69.672C242.59 67.3947 244.969 66.256 247.694 66.256C249.768 66.256 251.415 66.8253 252.635 67.964C253.855 69.1027 254.465 70.831 254.465 73.149C254.465 74.3283 254.323 75.65 254.038 77.114C253.753 78.5373 253.347 80.286 252.818 82.36C252.493 83.6207 252.188 84.861 251.903 86.081C251.659 87.2603 251.537 88.1957 251.537 88.887C251.537 89.7003 251.72 90.3307 252.086 90.778C252.452 91.2253 253.082 91.449 253.977 91.449C255.197 91.449 256.173 91.022 256.905 90.168C257.637 89.2733 258.369 87.911 259.101 86.081H261.663C260.158 90.5543 258.41 93.5637 256.417 95.109C254.465 96.6137 252.432 97.366 250.317 97.366ZM269.83 112.25C267.919 112.25 266.231 111.62 264.767 110.359C263.344 109.139 262.632 107.573 262.632 105.662C262.632 103.873 263.079 102.409 263.974 101.27C264.869 100.131 266.028 99.2367 267.451 98.586C268.874 97.9353 270.786 97.244 273.185 96.512L273.734 93.95C271.619 96.2273 269.179 97.366 266.414 97.366C264.096 97.366 262.164 96.573 260.619 94.987C259.074 93.401 258.301 90.9203 258.301 87.545C258.301 84.5357 258.891 81.384 260.07 78.09C261.29 74.7553 263.079 71.9493 265.438 69.672C267.837 67.354 270.684 66.195 273.978 66.195C275.645 66.195 276.886 66.4797 277.699 67.049C278.512 67.6183 278.919 68.3707 278.919 69.306V69.428L279.529 66.5H288.374L280.932 101.88C280.119 105.784 278.675 108.488 276.601 109.993C274.568 111.498 272.311 112.25 269.83 112.25ZM270.379 91.449C271.314 91.449 272.25 91.0627 273.185 90.29C274.161 89.4767 274.852 88.338 275.259 86.874L278.37 72.112C278.045 70.6887 277.211 69.977 275.869 69.977C274.242 69.977 272.778 70.9327 271.477 72.844C270.176 74.7147 269.159 76.992 268.427 79.676C267.695 82.3193 267.329 84.6577 267.329 86.691C267.329 88.7243 267.614 90.0257 268.183 90.595C268.793 91.1643 269.525 91.449 270.379 91.449ZM268.427 106.821C269.159 106.821 269.85 106.435 270.501 105.662C271.152 104.93 271.66 103.73 272.026 102.063L272.758 98.464C270.603 99.196 268.935 100.05 267.756 101.026C266.577 102.002 265.987 103.263 265.987 104.808C265.987 105.296 266.231 105.743 266.719 106.15C267.207 106.597 267.776 106.821 268.427 106.821Z" fill="white"/>
<defs>
<linearGradient id="paint0_linear" x1="161.887" y1="143.744" x2="23.4615" y2="33.0035" gradientUnits="userSpaceOnUse">
<stop stop-color="#4CA1AF"/>
<stop offset="1" stop-color="#C4E0E5"/>
</linearGradient>
</defs>
</svg>
