<svg xmlns="http://www.w3.org/2000/svg" xmlns:xlink="http://www.w3.org/1999/xlink" viewBox="0 0 1080.61 1080.61"><defs><style>.cls-1{fill:url(#linear-gradient);}.cls-2{fill:#fff;}</style><linearGradient id="linear-gradient" x1="1177.3" y1="1049.9" x2="165.86" y2="240.75" gradientUnits="userSpaceOnUse"><stop offset="0" stop-color="#4ca1af"/><stop offset="1" stop-color="#c4e0e5"/></linearGradient></defs><title>Asset 36</title><g id="Layer_2" data-name="Layer 2"><g id="Layer_1-2" data-name="Layer 1"><circle class="cls-1" cx="540.31" cy="540.31" r="540.31"/><path class="cls-2" d="M354.05,667.69c.24.15.57.5.69.44.64-.34.16-.68-.08-1-9-12.58-17.53-25.49-25.35-38.84-35.76-61-60.66-126.54-79.33-194.55-4.08-14.87-7.65-29.88-10.79-44.92-.36,0-.53-.05-.6,0a3.58,3.58,0,0,0-.8.75c-16.82,24.44-26.46,51.31-27,81.12-.51,28.43,6.95,55,19.92,80.07,18.45,35.66,44.95,64.4,76.84,88.39A266,266,0,0,0,354.05,667.69ZM818.82,185.24c-1.31-.44-2.24-.79-3.2-1.08a486.67,486.67,0,0,0-75.75-16.86c-36-4.86-72-5.06-107.81,1.9-50.25,9.76-93.85,32.28-130.2,68.5-28,27.91-48.66,60.72-64,97C415.73,387.19,406,442.27,404.06,498.91a606.16,606.16,0,0,0,5.37,102.79c1.16,8.51,2.54,17,3.83,25.6,1.4-.36,1.35-1.27,1.62-1.89q10-23,21.74-45.16C467.39,522,505.29,468.72,548.25,419c69-80,147.71-149.23,234.4-209.47C794.41,201.32,806.43,193.53,818.82,185.24ZM619.33,453.47c-7.27,15.85-14.73,31.47-22.83,46.79C563.11,563.45,521.42,620.82,474,674.07c-72.56,81.44-154.74,151.78-245.66,212-4.59,3-9.22,6-14.35,9.33,2.71.84,4.82,1.52,6.94,2.14,52.36,15.46,105.52,23.57,160.2,17,36.42-4.35,70.68-15.3,102.21-34.24,47.48-28.51,81.08-69.41,104.82-118.8,27.21-56.6,38.59-116.94,40.86-179.26a601.44,601.44,0,0,0-3.82-91.19C623.71,478.49,622,466,619.33,453.47Zm-243.91,183c-2.78-23.29-5.12-46.3-6.41-69.43a845.78,845.78,0,0,1,2.19-118.8,1056.09,1056.09,0,0,1,17-118.33,1092.68,1092.68,0,0,1,34.52-131.17c2.61-7.81,5.3-15.59,8-23.41-.51-.12-.76-.27-1-.22-31.81,9.49-61.16,23.7-86.28,45.74-41.17,36.12-60.52,82.73-64.76,136.38-2.86,36.14,1.79,71.58,11,106.47C305,521.66,331.5,574.28,365.81,623.15,369,627.64,372.21,632.05,375.42,636.5Zm226.9,269.09a12.07,12.07,0,0,0,1.57-.22c6.55-2.22,13.16-4.26,19.62-6.72,33.69-12.89,63.29-31.8,86.57-59.77,27.62-33.19,40.8-72,44.26-114.56,3-37.3-1.82-73.85-11.58-109.79-16.64-61.33-45.62-116.59-83.11-167.61-.7-.94-1.07-2.31-2.67-2.63,0,.7,0,1.31.13,1.9,9.56,61.66,10,123.57,4.8,185.6a1056.93,1056.93,0,0,1-17.13,119.45,1117.92,1117.92,0,0,1-31,120.43C610.15,882.89,606.23,894,602.32,905.59ZM794.18,691.94c.41-.23.7-.3.82-.48,17.1-24.71,26.94-51.92,27.27-82.13.4-36.85-11.93-69.83-32-100.11-28.09-42.29-66-73.41-111-96.42-.41-.22-.84-.56-1.13-.08C737.2,497.33,771.3,592.21,794.18,691.94Z"/></g></g></svg>